# xmcd
#
# Track frame offsets: 
#        150
#        18848
#        41756
#        53407
#        68906
#        84148
#        109264
#        120797
#        138698
#        159608
#        175459
#
# Disc length: 2635 seconds
#
# Revision: 0
# Processed by: cddbd v1.5.2PL0 Copyright (c) Steve Scherf et al.
# Submitted via: ExactAudioCopy v1.3
#
DISCID=870a490b
DTITLE=Big Joe and The Dynaflows - Cool Dynaflow
DYEAR=2000
DGENRE=Modern Electric Blues
TTITLE0=Cool Dynaflow
TTITLE1=Trouble Walkin' Down The Road
TTITLE2=Black Cadillac
TTITLE3=Tough Act To Follow
TTITLE4=Mambo Mama
TTITLE5=I Lost My True Love
TTITLE6=Let's Rock (One More Time)
TTITLE7=Livin' With The Blues
TTITLE8=I'd Rather Drink Muddy Water
TTITLE9=Alberta's Kitchen
TTITLE10=All This And Gravy Too
EXTD=
EXTT0=
EXTT1=
EXTT2=
EXTT3=
EXTT4=
EXTT5=
EXTT6=
EXTT7=
EXTT8=
EXTT9=
EXTT10=
PLAYORDER=
